<svg width="1000" height="1000" viewBox="0 0 1000 1000" fill="none" xmlns="http://www.w3.org/2000/svg">
<mask id="mask0_1218_1300" style="mask-type:luminance" maskUnits="userSpaceOnUse" x="100" y="100" width="800" height="800">
<path d="M500 100C279.09 100 100 279.09 100 500C100 720.91 279.09 900 500 900C720.91 900 900 720.91 900 500C900 279.09 720.91 100 500 100ZM500 761.531C355.559 761.531 238.455 644.428 238.455 499.986C238.455 355.545 355.559 238.441 500 238.441C644.441 238.441 761.545 355.545 761.545 499.986C761.531 644.441 644.441 761.531 500 761.531Z" fill="white"/>
</mask>
<g mask="url(#mask0_1218_1300)">
<path d="M500 500.001L457.973 -101.075C471.255 -101.999 486.69 -102.537 500 -102.537V500.001Z" fill="#7CC387"/>
<path d="M500.002 500L112.691 38.4273C214.664 -47.1313 325.188 -91.7934 457.974 -101.076L500.002 500Z" fill="#E67C74"/>
<path d="M500.001 500.002L81.4355 66.5676C91.008 57.3263 102.498 46.9814 112.691 38.4297L500.001 500.002Z" fill="#F7D052"/>
<path d="M500 500.001L1041.56 235.863C1187.43 534.966 1063.23 895.684 764.138 1041.57C465.049 1187.46 104.318 1063.24 -41.5582 764.139C-158.262 524.87 -110.068 251.504 81.435 66.5664L500 500.001Z" fill="#8AA8D8"/>
<path d="M500 500L987.462 145.835C1010.94 178.138 1024.06 199.973 1041.56 235.863L500 500Z" fill="#5CBDC5"/>
<path d="M500 500.002L926.069 73.9326C949.6 97.4637 967.917 118.912 987.476 145.822L500 500.002Z" fill="#E9702C"/>
<path d="M500 500.001L895.31 45.2559C905.352 53.9869 916.662 64.5248 926.069 73.9317L500 500.001Z" fill="#49A751"/>
<path d="M500 500.001L735.434 -54.6338C796.703 -28.6338 845.076 1.60071 895.31 45.2697L500 500.001Z" fill="#FFB800"/>
<path d="M500 500.001L552.51 -100.247C618.814 -94.4402 674.166 -80.6471 735.421 -54.6471L500 500.001Z" fill="#E0463C"/>
<path d="M500 499.999L531.531 -101.725C538.179 -101.38 545.876 -100.842 552.51 -100.263L500 499.999Z" fill="#E0C3DE"/>
<path d="M500 500.001V-102.537C513.31 -102.537 518.248 -102.413 531.531 -101.71L500 500.001Z" fill="#5B7DBE"/>
</g>
</svg>
